<svg width="22" height="22" viewBox="0 0 22 22" fill="none" xmlns="http://www.w3.org/2000/svg">
<mask id="mask0" mask-type="alpha" maskUnits="userSpaceOnUse" x="2" y="2" width="18" height="18">
<path d="M11 8.13612C9.42303 8.13612 8.13611 9.42304 8.13611 11C8.13611 12.5769 9.42303 13.8639 11 13.8639C12.5769 13.8639 13.8638 12.5769 13.8638 11C13.8638 9.42304 12.5769 8.13612 11 8.13612ZM19.5894 11C19.5894 9.81405 19.6002 8.63886 19.5336 7.45507C19.467 6.08007 19.1533 4.85976 18.1478 3.85429C17.1402 2.84667 15.9221 2.53515 14.5471 2.46855C13.3611 2.40195 12.1859 2.41269 11.0021 2.41269C9.81619 2.41269 8.641 2.40195 7.45721 2.46855C6.08221 2.53515 4.86189 2.84882 3.85643 3.85429C2.84881 4.86191 2.53728 6.08007 2.47068 7.45507C2.40408 8.64101 2.41482 9.8162 2.41482 11C2.41482 12.1838 2.40408 13.3611 2.47068 14.5449C2.53728 15.9199 2.85096 17.1402 3.85643 18.1457C4.86404 19.1533 6.08221 19.4648 7.45721 19.5314C8.64314 19.598 9.81834 19.5873 11.0021 19.5873C12.1881 19.5873 13.3633 19.598 14.5471 19.5314C15.9221 19.4648 17.1424 19.1512 18.1478 18.1457C19.1554 17.1381 19.467 15.9199 19.5336 14.5449C19.6023 13.3611 19.5894 12.1859 19.5894 11ZM11 15.4064C8.5615 15.4064 6.59353 13.4385 6.59353 11C6.59353 8.56151 8.5615 6.59355 11 6.59355C13.4385 6.59355 15.4064 8.56151 15.4064 11C15.4064 13.4385 13.4385 15.4064 11 15.4064ZM15.5869 7.44218C15.0176 7.44218 14.5578 6.98241 14.5578 6.41308C14.5578 5.84374 15.0176 5.38398 15.5869 5.38398C16.1562 5.38398 16.616 5.84374 16.616 6.41308C16.6162 6.54827 16.5897 6.68217 16.538 6.8071C16.4863 6.93203 16.4106 7.04555 16.315 7.14114C16.2194 7.23674 16.1058 7.31253 15.9809 7.36419C15.856 7.41585 15.7221 7.44235 15.5869 7.44218Z" fill="#555555"/>
</mask>
<g mask="url(#mask0)">
<rect x="2" width="20" height="22" fill="url(#paint0_linear)"/>
</g>
<defs>
<linearGradient id="paint0_linear" x1="22" y1="5.81132" x2="1.88933" y2="18.153" gradientUnits="userSpaceOnUse">
<stop stop-color="#BD8D3F"/>
<stop offset="0.473089" stop-color="#EDC45F"/>
<stop offset="1" stop-color="#BD8D3F"/>
</linearGradient>
</defs>
</svg>
