<svg width="13" height="13" viewBox="0 0 13 13" fill="none" xmlns="http://www.w3.org/2000/svg">
<mask id="mask0" mask-type="alpha" maskUnits="userSpaceOnUse" x="0" y="0" width="13" height="13">
<path d="M2.68917 5.64292C3.70917 7.6475 5.3525 9.28375 7.35708 10.3108L8.91542 8.7525C9.10667 8.56125 9.39 8.4975 9.63792 8.5825C10.4312 8.84458 11.2883 8.98625 12.1667 8.98625C12.5562 8.98625 12.875 9.305 12.875 9.69458V12.1667C12.875 12.5562 12.5562 12.875 12.1667 12.875C5.51542 12.875 0.125 7.48458 0.125 0.833333C0.125 0.44375 0.44375 0.125 0.833333 0.125H3.3125C3.70208 0.125 4.02083 0.44375 4.02083 0.833333C4.02083 1.71875 4.1625 2.56875 4.42458 3.36208C4.5025 3.61 4.44583 3.88625 4.2475 4.08458L2.68917 5.64292Z" fill="#555555"/>
</mask>
<g mask="url(#mask0)">
<rect width="13" height="13" fill="url(#paint0_linear)"/>
</g>
<defs>
<linearGradient id="paint0_linear" x1="13" y1="3.43396" x2="0.638264" y2="11.7788" gradientUnits="userSpaceOnUse">
<stop stop-color="#BD8D3F"/>
<stop offset="0.473089" stop-color="#EDC45F"/>
<stop offset="1" stop-color="#BD8D3F"/>
</linearGradient>
</defs>
</svg>
