<svg width="20" height="20" viewBox="0 0 20 20" fill="none" xmlns="http://www.w3.org/2000/svg">
<g clip-path="url(#clip0)">
<mask id="mask0" mask-type="alpha" maskUnits="userSpaceOnUse" x="0" y="4" width="20" height="12">
<path fill-rule="evenodd" clip-rule="evenodd" d="M17.802 12.298C17.802 12.298 19.419 13.895 19.819 14.634C19.8268 14.6446 19.8329 14.6565 19.837 14.669C20 14.942 20.04 15.156 19.96 15.314C19.825 15.575 19.368 15.706 19.213 15.717H16.355C16.156 15.717 15.742 15.665 15.238 15.317C14.853 15.048 14.47 14.605 14.099 14.172C13.545 13.529 13.066 12.971 12.581 12.971C12.5197 12.9709 12.4589 12.981 12.401 13.001C12.034 13.117 11.568 13.64 11.568 15.033C11.568 15.469 11.224 15.717 10.983 15.717H9.674C9.228 15.717 6.906 15.561 4.847 13.39C2.324 10.732 0.0579985 5.39999 0.0359985 5.35299C-0.105002 5.00799 0.190998 4.81999 0.510998 4.81999H3.397C3.784 4.81999 3.91 5.05399 3.998 5.26399C4.1 5.50499 4.478 6.46899 5.098 7.55199C6.102 9.31399 6.719 10.031 7.212 10.031C7.30462 10.0313 7.39568 10.0071 7.476 9.96099C8.12 9.60699 8 7.30699 7.97 6.83299C7.97 6.74099 7.969 5.80599 7.639 5.35399C7.403 5.02999 7.001 4.90399 6.758 4.85799C6.823 4.76399 6.961 4.61999 7.138 4.53499C7.579 4.31499 8.376 4.28299 9.167 4.28299H9.606C10.464 4.29499 10.686 4.34999 10.998 4.42899C11.626 4.57899 11.638 4.98599 11.583 6.37199C11.567 6.76799 11.55 7.21399 11.55 7.73899C11.55 7.85099 11.545 7.97599 11.545 8.10299C11.526 8.81399 11.501 9.61499 12.003 9.94399C12.0681 9.98455 12.1433 10.006 12.22 10.006C12.394 10.006 12.915 10.006 14.328 7.58099C14.948 6.50999 15.428 5.24699 15.461 5.15199C15.489 5.09899 15.573 4.94999 15.675 4.88999C15.7476 4.85138 15.8288 4.8321 15.911 4.83399H19.306C19.676 4.83399 19.927 4.88999 19.976 5.02999C20.058 5.25699 19.96 5.94999 18.41 8.04599C18.149 8.39499 17.92 8.69699 17.719 8.96099C16.314 10.805 16.314 10.898 17.802 12.298Z" fill="#555555"/>
</mask>
<g mask="url(#mask0)">
<rect width="20" height="20" fill="url(#paint0_linear)"/>
</g>
</g>
<defs>
<linearGradient id="paint0_linear" x1="20" y1="5.28302" x2="0.981944" y2="18.1213" gradientUnits="userSpaceOnUse">
<stop stop-color="#BD8D3F"/>
<stop offset="0.473089" stop-color="#EDC45F"/>
<stop offset="1" stop-color="#BD8D3F"/>
</linearGradient>
<clipPath id="clip0">
<rect width="20" height="20" fill="white"/>
</clipPath>
</defs>
</svg>
